<?xml version='1.0' encoding='utf-8'?>
<svg xmlns="http://www.w3.org/2000/svg" data-name="Layer 1" viewBox="0 0 3135.2 1947.1"> <path transform="translate(-743.14 -1013.4)" d="M757.83,1540.96c-.07-.09-.13-.17993-.2-.27l-1.02-1.05994,1.16.91Z" fill="#f9fbf8"/> <path transform="translate(-743.14 -1013.4)" d="M1585,1296.54a4.15959,4.15959,0,0,1-.68994.80994c-.17.14-.68006-.15-1.03-.24C1583.86,1296.91992,1584.42993,1296.73,1585,1296.54Z" fill="#f9fbf8"/> <path transform="translate(-743.14 -1013.4)" d="M1878.9,1067.16992a1094.95069,1094.95069,0,0,0-70.21008,185.02c-6.63989,23.86011-14.06994,47.71-15.54993,72.70007-.53,9.11-1.92,12.59-13.1,9.5199-32.19006-8.81994-64.72-16.6499-97.47-23.04992-32.12012-6.28-64.67-10.34-97.04-15.37.04.11.07.22.11.33008v.00989c-.21008.06994-.43005.14-.64.21008.13-.19006.26-.39014.4-.57007.03992.01.08.01.12.02-.1001-.31006-.18994-.6-.26-.9a10.00359,10.00359,0,0,1-.32007-2.58,7.87367,7.87367,0,0,1,.13013-1.47,2.31955,2.31955,0,0,1,.04993-.28,8.56,8.56,0,0,1,.37-1.34009,12.07083,12.07083,0,0,1,1.42993-2.73c.19007-.28.40015-.55994.61011-.83.22-.28.43994-.54993.66992-.80994.23-.27.46-.53.70007-.78s.48-.5.73-.75c.12-.13.24-.25.37-.37012.12-.12988.25-.25.37-.36987.38-.37012.75-.72,1.11-1.07007.13-.12.25-.24.37-.36.72009-.70008,1.41-1.39,2.01-2.08,36.49-42.07007,72.21008-84.62012,114.03-122.11011,22.15-19.83984,45.06995-39.1499,67.70008-58.24,25.35986-21.38989,56-36.54992,84.55993-54.06994,6.33-3.88,13.35-2.62,18.94007,2.22009C1886.62,1053.59,1882.18994,1060.3999,1878.9,1067.16992Z" fill="#f9fbf8"/> <path transform="translate(-743.14 -1013.4)" d="m1995.5 1434.6c-34.06-12.69-59.3-35.07-90.32-46.33-7.6399-2.77-6.47-8.8501-0.31994-13.95 8.39-6.9601 9.4501-14.55 0.34-21.85-8.71-6.98-18.02-7.3-24.57 1.97-7.7899 11.03-17.17 10.23-28.08 7.4301-7.4401-1.91-15.94-3.8099-17.01-12.02-0.95-7.24 8.35-6.4 12.91-9.39 8.1201-5.3099 13.6-12.03 9.74-21.97-5-12.86-15.45-9.78-26.46-6.26 2.8-13.01 11.75-19.79 20-26.98 6.47-5.64 15.22-10 12.74-20.72-2.51-10.91-11.45-13.75-20.52-14.23 17.69-50.18 33.48-100.4 57.18-153.17 48.68 110.78 80.16 220.4 94.37 337.47z" fill="#f9fbf8"/> <path transform="translate(-743.14 -1013.4)" d="m3503.9 2733.3c-12.29-3.1099-11.44-24.72-29.57-22.51 7.9199 16.09 13.89 31.56 7.1099 48.8-3.97 4.46-7.4199 9.5701-12 13.28-19.35 15.7-27.3 14.48-42.12-5.6799-4-5.4399-4-5.4399-13.54-7.02-1.04 8.29 14.03 13.79 5.25 22.48-9.0901 9-21.46 10.55-33.97 8.73a369.13 369.13 0 0 1-107.16-32.65c-22.98-11.06-46.66-7.1001-69.53-12.43-51.11-7.2397-100.13 6.25-149.61 15.06-81.83 14.57-163.05 14.02-242.99-11.01-29.83-9.3401-60.31-17.94-90.43-23.98-22.24-4.46-47.92-4.1499-72.27-0.37988-65.26 10.11-130.77 10.63-196.72 5.6899-75.91-5.6899-150.66-19.39-225.78-30.04-65.99-9.3498-130.37-28.29-194.62-46.72-36.56-10.49-73.93-19.19-111.52-24.68-20.09-2.9402-41.49 2.1101-62.18 4.53-23 2.6799-45.79 5.48-69.12 5.7798-10.23 0.13013-21.36 7.5601-33.29 7.79-39.39 0.79-77.2 13.65-116.01 16.78-55.63 4.4804-110.64 15.24-166.96 13.37-117.82-3.9202-200.1-59.82-250.25-165.41-24.49-51.56-41.58-105.57-47.03-162.19-3.97-41.25 0.3-82.64 18.52-121.19 0.06994-1.55 0.15-3.0901 0.23-4.6399a2.6296 2.6296 0 0 1 0.18-3.1301c9.33-21.03 17.29-42.81 28.31-62.91 18.49-33.72 67.03-69.26 112.34-51.54 15.59 6.1001 32.44 12.11 22.11 35.35a12.324 12.324 0 0 0 3.33 14.7c6.8199 5.99 9.2201-1.05 13.26-3.6101 15.52-9.8398 19.19-5.9399 28.52 10.02 22.82 39.07 7.08 79.25 7.1801 118.96 4.3899 53.11 23.32 100.99 52.29 145.2 3.9501 6.0298 8.1901 14.01 17.45 9.48 7.77-3.8 5.45-11.8 3.7999-17.85-5.38-19.76-11.61-39.29-17.29-58.16 56.46-9.95 114.78-10.8 168.64-34.16 2-5.95 12-8.6599 4.88-18.52-6.13-8.49-13.04-5.49-19.67-4.8401-44.73 4.3601-88.93 18.26-134.5 7.1902a9.7707 9.7707 0 0 0-2.0299-0.15991c-34.27-0.91016-38.88-5.6602-36.16-40.92 2.29-29.72 7.9199-59.24 4.3201-89.23-5.3901-12.05-10.41-24.27-16.27-36.09-7.3201-14.79-16.45-28.09-33.56-33.16-1.8999-0.57007-5.04-0.98-5.3899-2.1301-6.6802-21.87-27.26-27.77-48.63-40.02 33.62-8.5601 62.99-16.19 92.44-23.48 11.76-2.91 23.6-6.1 35.59-7.2899 11.05-1.0801 20-5.52 18.65-16.33-1.36-10.84-12.91-13.67-22.48-12.37-24.63 3.35-49.47 6.59-73.47 12.77-15.13 3.9-30.86 7.02-45.05 14.93-9.75 5.4399-18.84 9.7899-19.67 22.83-0.76 12.04-10.63 5.5901-15.37 5.3501-44.95-2.28-79.98 17.81-106.9 50.77a281.55 281.55 0 0 0-48.72 87.68c-6 17.79-11.62 12.48-19.06 2.6301a436.9 436.9 0 0 1-80.2-175.33c-13.91-65.76-9.8101-131.39-0.92993-197.17 0.71-5.2301 1.1799-13.59-4.17-14.29-6.16-0.81006-14.98-0.27-18.3 8.32-5.26 13.62-10.4 27.29-15.9 41.75-25.4-11.71-45.65-30.7-65.31-49.76-73.79-71.53-117.83-161.04-151.52-256.35-9.76-27.61-18.31-55.65-26.02-84.02-5.69-20.93 5.01-17.74 16.63-16.14 38.2 5.2598 72.74 21.92 107.09 37.66 34.67 15.88 71.05 29.03 104.53 54.64a139.9 139.9 0 0 0-51.69 8.63c-8.36 3.05-19.58 7.48-16.03 19.72 3.57 12.28 14.38 11.12 24.58 9.0601 17.74-3.5801 35.52-6.96 53.27-10.5 14.47-2.89 27.61-0.26 41.34 8.86-8.97 5.38-16.33 9.7-23.58 14.2-5.83 3.6-8.36 8.61-6.11 15.51 2.2401 6.88 7.26 9.01 14.03 9.12 10.4 0.15 19.34-4.4299 28.78-7.77 9.52-3.3799 19.54-7.37 29.21 2.05-9.41 11-25.08 17.64-31.39 33.17-5.87 14.42-7.54 27.88 6.5 38.22 12.07 8.89 41.9 5.7799 49.58-5.05 2.8498-4.0199 6.95-8.92 3.8799-14.89-2.48-4.83-6.96-6.01-12.01-5.96-5.8199 0.07007-11.63 0.02-20.04 0.02 9.6801-15.01 23.35-18.63 35.78-24.32 26.02-11.93 29.3-23.46 6.8301-40.19-61.29-45.62-121.59-93.11-193.14-122.87-41.8-17.38-83-36.12-127.62-45.7-11.44-2.46-21.96-4.8099-33.56 0.13013-4.41 1.8799-13.6 5.1799-16.1-2.1502-2.63-7.71-0.17-16.6 8.51-20.64 12.52-5.8201 26.34-6.8601 39.74-7.0901 106.05-1.83 207.53 21.1 306.51 57.41 22.55 8.27 45.63 15.12 68.2 23.34 7.28 2.65 13.85 4.78 16.16-4.5399 6.23-25.17 25.16-37.31 44.6-52.22 44.75-34.33 95.14-54.56 147.73-71.7 67.73-22.08 136.72-26.44 207.45-20.84 96.66 7.66 185.75 39.68 271.65 81.31 34.79 16.86 67.51 38.36 99.34 61.19 36.49 26.16 75.36 49.94 108.05 80.16 22.25 20.58 51.64 36.69 62.69 68.26 16.99 15.73 25.7 36.76 36.35 56.59 4.8999 9.13 3.6399 13.74-6.6602 17.77a459.06 459.06 0 0 0-90.83 48.12 90.199 90.199 0 0 0-19.45 17.33c-4.5103 5.5-7.2402 11.52-0.29 17.71 5.97 5.2999 11.18 5.0099 17.92 0.66992 30.08-19.35 61.45-36.23 94.73-49.65 19.77-7.97 24.16-6.41 24.8 16.05 1.04 36.42-3.47 71.95-23.59 103.73-10.99 33.73-29.33 64.02-44.97 96 34.2-14.15 54.11-42.23 72.53-71.81 13.04-24.49 21.42-50.76 28.66-77.34 9.6902-35.59 1.1401-69.61-10.15-103.34-7.4299-22.16-16.01-43.77-27.27-64.27-2.4099-4.4-6.75-7.59 1.51-12.57 48.94-29.53 103.27-45.38 158.69-41.86 71.56 4.54 133.44 37.61 184.17 89.44 36.32 37.1 64.59 79.18 79.86 129.29 13.73 45.63 30.51 91.25 3.27 137.76-2.76 4.7101-3.79 13.56-11.44 11.5-3.3501-0.8999-4.98-8.3899-7.27-12.94-1.71-3.39 0.03-8.47-4.8101-10.29-2.8899-1.09-5.8401-4.83-8.9199-1.5599-1.4202 1.51-1.02 4.7899-1.29 7.2799-0.06006 0.58008 0.57007 1.2101 0.8 1.8401 4.3198 11.6 13.06 23.73 0.56982 34.9-15.54 13.89-35.02 14.58-54.22 11.61-7.24-1.12-5.6699-9.89-5.48-15.71 0.21021-6.73 6.1902-16.84-4.7898-17.72-10.85-0.88-2.7402 10.71-5.9902 15.82-1.3899 2.1901-1.5898 5.1401-2.3298 7.7401 1.98 12.27-7.1301 9.17-12.96 8.59-36.55-3.6599-60.97-25.62-78.84-55.4-8.72-14.55-14.25-31.01-21.23-46.61-16.12-38.44-46.27-61.87-83.64-77.05-10.67-4.34-24.11-11.14-31.08 4.6502-6.77 15.31 5.5798 20.99 16.91 26.25 2.8701 1.3298 5.25 3.74 7.8601 5.6499 19.42 14.56 39.42 29.22 53.67 48.64 12.3 16.75 17.81 37.96 27.45 56.78 25.97 50.68 70.03 71.1 123.11 77.78 46.06 5.79 86.93-7.24 120.68-38.45a102.99 102.99 0 0 0 33.48-70.89c1.45-26.13 1.4102-52.43-3.3701-78.41-12.34-29.32-18.1-60.94-32.84-89.54-19.77-38.36-43.2-73.76-74.68-104.41 8.9299-7.33 19.91-5.5601 30.02-4.97 69.76 4.03 137.85 17.58 202.91 42.76 69.92 27.06 138.37 56.64 199.48 102.47 35.21 26.41 70.64 52.97 104.91 80.39 25.12 20.1 47.01 45.45 67.78 71.37 23.11 28.85 45.49 58.25 65.08 89.2a702.91 702.91 0 0 1 77.89 169.6c14.61 47.39 20.52 96.71 36.11 143.68 4.1399 12.46 8.21 24.94 12.31 37.42 12.74 15.74 17.5 35.06 24.09 53.57 7.8701 26.73 16.6 53.3 6.1802 81.54-5.3401 14.51-13.26 21.07-27.46 10.62-3.7803-2.7803-9.8601-0.73-11.85-6.3401-34.18-11.85-66.16-28.3-97.17-46.73-9.6201-5.72-19.06-11.72-28.59-17.59-21.47-8.9399-40.96-19.82-45.74-45.6a14.737 14.737 0 0 0-3.6499-7.1599c-15.55-16.12-16.5-34.35-13.79-56.03a39.775 39.775 0 0 0-20.69-39.59c-3.7898 12.63-10.34 23.46 0.7 37.85 4.6401 6.04-5.7197 20.23-13.52 28.72-13.02 14.16-11.05 23.41 8.01 26.79 10.38 1.8401 16.47 5.99 13.92 14.37-2.8101 9.22-11.14 2.75-16.81 0.5498-8.5898-3.3198-18.58 1.77-26.5-4.7598-7.6699-2.03-13.13 1.0498-17.14 7.47-7.1301 12.62 2.3098 16.06 10.99 20.24 30.46 14.67 60.73 29.73 91.32 44.13a201.67 201.67 0 0 1 40.6 24.72c35.81 13.62 67.63 35.46 103.52 49.26 35.68 13.71 73.06 23.16 106.93 41.46a142.27 142.27 0 0 1 30.5 22.56c9.4602 9 6.23 26.45 13.97 31.29 13.17 8.24 13.73 20.48 17.21 31.35 6.8401 21.33-0.4898 41.06-12.7 58.76z" fill="#f9fbf8"/> <polygon points="2447.1 1777 2445.9 1777.2 2446 1776.3" fill="#f9fbf8"/> <path transform="translate(-743.14 -1013.4)" d="m3831.5 2728.7c-1.04 34.17-1.8301 68.8-8.0998 102.23-6.6502 35.53-34.22 55.09-66.93 67.06-10.62 3.8899-19.39 11.1-30.73 14.14-47.11 12.64-92.87 12.75-137.72-9.0598-42.72-20.77-75.47-80.05-55.16-132.25 16.86-43.36 26.09-89.56 49.49-130.57 3.3098-5.8101 10.12-15.39 0.01977-21.66-9.7598-6.05-16.74 1.2197-22.37 8.1899-4.1699 5.1699-7.1101 11.34-11.67 18.83-9.6902-14.99-14.05-31.48-23.97-45.27-20.8-28.92-49.68-45.78-82.08-58.03-6.5-2.4497-12.56-5.3699-9.1499-14.68 21.04-57.59 0.2998-109.16-23.04-160.51-9.76-21.47-18.22-43.54-28.66-68.68 35.59 10.33 64.38 26.97 95.07 38.81 65.21 25.15 129.37 53.09 190.83 86.19 35.74 19.26 67.66 44.92 89.32 81.54 13.9 23.5 31.75 44.18 42.97 69.94 15.24 34.97 24.8 70.8 26.58 108.39 0.73 15.49 5.75 30.42 5.3001 45.39z" fill="#f9fbf8"/> <path transform="translate(-743.14 -1013.4)" d="m3183.8 2625.1c7.7854-15.76 14.153-31.819 12.292-50.015a18.204 18.204 0 0 1 1.6547-9.8098c10.216-19.413 13.108-43.669 36.768-54.357 4.2844-1.9353 6.6822-8.0467 9.9487-12.232 35.812 13.621 67.629 35.459 103.52 49.259 35.672 13.715 73.055 23.164 106.92 41.467a142.49 142.49 0 0 1 30.509 22.554c9.4552 9.0078 6.2277 26.454 13.965 31.296 13.172 8.2416 13.73 20.482 17.213 31.347 6.8362 21.328-0.491 41.061-12.703 58.758-12.293-3.1086-11.444-24.715-29.567-22.508 7.9135 16.088 13.883 31.561 7.1087 48.799-13.11-0.99614-25.867 0.261-38.844-6.7368-11.297-6.0915-27.784-4.1219-37.525 2.8242-17.524 12.497-32.098 8.4538-48.987 0.99862-23.34-10.303-46.982-22.006-72.262-24.524-22.752-2.2668-43.25-9.0466-63.854-17.373-8.0643-3.2586-14.832-8.2132-15.57-17.02-1.3511-16.123-11.52-24.998-23.865-32.662q-0.30871-7.7218-0.61842-15.445c4.4777-7.7042 8.6959-15.448 3.8912-24.618z" fill="#f9fbf8"/> <path transform="translate(-743.14 -1013.4)" d="M1972.63,2152.10986c-.01.05-.03.11011-.03991.16016.05993-.01.11987-.01.17993-.02Z" fill="#e7cabe"/> <path transform="translate(-743.14 -1013.4)" d="m1279.2 2286.3c-11.394-3.4443-20.129-17.04-34.717-8.7793-2.2089 1.2507-5.0846-0.79084-5.4987-4.167-2.2817-18.604-13.843-29.933-29.626-38.12-5.3848-2.7929-2.6128-12.557-10.813-13.264 9.3356-21.018 17.294-42.799 28.315-62.902 18.487-33.723 67.028-69.258 112.33-51.538 15.598 6.1004 32.444 12.114 22.114 35.346a12.324 12.324 0 0 0 3.3321 14.705c6.8182 5.984 9.2197-1.0554 13.259-3.6149 15.519-9.8327 19.192-5.9392 28.517 10.026 22.82 39.07 7.076 79.25 7.182 118.97-31.739 16.365-64.928 16.439-98.945 9.3288-5.7454-1.2007-11.978-0.07241-17.989-0.0321q-4.5388-0.74952-9.07-1.4762a22.463 22.463 0 0 0-0.40713-3.4281c-2.0225-5.2218-4.7455-5.1146-7.9866-1.0516z" fill="#f9fbf8"/> <path transform="translate(-743.14 -1013.4)" d="m2458.3 1879.6c35.272 7.4229 64.099-13.58 95.813-21.825 1.7034-0.44295 4.5273-2.521 4.361-3.3327-3.2683-15.969 21.882-11.996 19.321-27.68-0.40365-2.4724 3.8155-3.6148 6.4455-2.1882 20.068 10.884 29.209-2.7144 38.228-16.819 2.2895-3.5805 5.3908-5.9838 9.9818-5.5839 13.74 45.638 30.514 91.256 3.2735 137.76-2.7609 4.7137-3.7931 13.566-11.437 11.503-3.3507-0.90418-4.9809-8.3866-7.2737-12.942-1.7057-3.3886 0.0336-8.4682-4.804-10.286-2.8957-1.0885-5.846-4.8335-8.9214-1.5639-1.4207 1.5108-1.0203 4.7916-1.2884 7.2865-0.06221 0.57708 0.56243 1.2072 0.7981 1.8398 4.3217 11.598 13.054 23.727 0.56541 34.891-15.539 13.892-35.018 14.583-54.216 11.615-7.2376-1.1188-5.6688-9.8937-5.4836-15.714 0.214-6.7312 6.1902-16.833-4.7918-17.719-10.846-0.87532-2.7367 10.716-5.9831 15.823-1.3921 2.1899-1.5885 5.1398-2.3288 7.7467-12.738-1.1138-0.22945-16.031-13.823-21.337-31.308-12.22-49.668-38.837-58.436-71.474z" fill="#f9fbf8"/> <path transform="translate(-743.14 -1013.4)" d="m2295 1864.9q16.296-13.216 32.595-26.431c19.429 14.561 39.426 29.224 53.675 48.638 12.299 16.757 17.808 37.968 27.452 56.787 25.971 50.681 70.025 71.097 123.11 77.774 46.063 5.7942 86.93-7.2319 120.68-38.442a103.05 103.05 0 0 0 33.478-70.892c1.4526-26.136 1.4048-52.434-3.3736-78.414 10.598 3.1687 22.146 4.5825 28.591 15.437-3.2852 1.9374-11.01-2.3211-9.4716 6.3215 4.8125 27.038 6.9484 54.259 0.75031 81.174-9.1312 39.651-27.247 72.625-67.701 89.444-17.326 7.2035-33.315 16.353-52.242 20.874-61.383 14.663-112.71-7.5224-163.77-37.51-46.076-27.064-58.974-74.65-79.485-117.97-2.8748-6.0714-7.7159-11.364-9.7969-17.631-7.032-21.177-24.281-1.5575-34.496-9.161z" fill="#e7cabe"/> <path transform="translate(-743.14 -1013.4)" d="m3236.8 2447c4.703-9.6423 23.277-8.692 19.348-25.281-0.22322-0.94288 3.8827-3.7322 6.3079-4.3501 18.175-4.6318 36.436-8.9249 54.663-13.35 1.9356-0.46982 4.3588-0.54 5.6628-1.7544 14.301-13.317 33.157-19.246 48.807-30.337 12.749 15.739 17.511 35.068 24.096 53.576-0.18341 9.2556-14.231 9.6931-12.975 19.087 3.4074 25.463-4.8423 47.082-20.151 66.727-34.185-11.844-66.16-28.295-97.172-46.727-9.617-5.7158-19.063-11.718-28.588-17.59z" fill="#f9fbf8"/> <path transform="translate(-743.14 -1013.4)" d="m3180.5 2665.1c12.345 7.6642 22.514 16.54 23.865 32.662 0.73812 8.8072 7.5061 13.762 15.57 17.02 20.604 8.3262 41.101 15.106 63.854 17.373 25.281 2.5183 48.923 14.222 72.262 24.524 16.889 7.4552 31.463 11.498 48.987-0.99862 9.7404-6.9461 26.228-8.9157 37.525-2.8242 12.977 6.9978 25.733 5.7406 38.843 6.7365-3.9688 4.4648-7.419 9.5704-11.998 13.285-19.352 15.7-27.306 14.473-42.12-5.6809-4.0024-5.4448-4.0024-5.4448-13.545-7.0257-1.0407 8.2911 14.028 13.792 5.2477 22.485-9.0852 8.9958-21.456 10.548-33.962 8.732a369.43 369.43 0 0 1-107.17-32.649c-22.98-11.064-46.659-7.0991-69.533-12.434 3.9596-6.1722 5.894-12.928 0.26752-18.643-16.133-16.386-13.706-41.562-28.267-58.612-0.62687-0.7339 0.08187-2.608 0.16849-3.951z" fill="#e7cabe"/> <path transform="translate(-743.14 -1013.4)" d="m2217 1882.8c7.8655 5.2825 14.288 2.2374 20.602-3.2185 7.3268-6.3309 15.36-9.9091 24.858-4.2812-13.431 3.4377-18.106 13.437-24.595 25.177-15.628 28.272-35.45 54.467-69.641 63.052-10.233 2.5692-21.268 5.2952-30.004-4.5916-2.2497-2.5463-4.648-4.7561-8.6779-3.1981-24.409 9.4362-13.155-7.8021-11.317-16.092 1.6299-7.3523 7.6649-12.035 14.152-16.468 12.249-8.3725 24.36-16.444 17.352-36.079-3.1286-8.7649 3.1302-19.845 13.758-24.3 5.7914-2.4278 8.8222-5.8922 8.8124-12.074 8.7503-3.9741 9.9808 8.4002 17.142 7.8841-10.992 33.727-29.325 64.021-44.965 95.998 34.196-14.147 54.102-42.227 72.525-71.808z" fill="#e7cabe"/> <path transform="translate(-743.14 -1013.4)" d="m2458.3 1879.6c8.7684 32.637 27.129 59.254 58.436 71.474 13.594 5.306 1.085 20.223 13.823 21.337 1.9737 12.262-7.1366 9.1673-12.961 8.5841-36.551-3.6592-60.975-25.623-78.84-55.404-8.7258-14.546-14.253-31.011-21.228-46.609 13.519 4.8658 27.175 0.73707 40.769 0.61864z" fill="#e7cabe"/> <path transform="translate(-743.14 -1013.4)" d="m3362.5 2511.3c15.308-19.645 23.558-41.264 20.151-66.727-1.2567-9.3935 12.791-9.831 12.975-19.087 7.8752 26.732 16.599 53.294 6.1862 81.541-5.3493 14.511-13.265 21.069-27.461 10.621-3.7825-2.7836-9.8596-0.73684-11.851-6.3481z" fill="#e7cabe"/> <path transform="translate(-743.14 -1013.4)" d="m1198.3 2225.1c4.0879 1.752 3.5281 3.2717-0.23132 4.633q0.1159-2.3148 0.23132-4.633z" fill="#f9fbf8"/> <path transform="translate(-743.14 -1013.4)" d="m1952.4 2926.8q-0.60492-0.33782-1.2097-0.67562 0.54537 0.39753 1.0911 0.79507z" fill="#6d5959"/> <path transform="translate(-743.14 -1013.4)" d="m1881.3 1907.5c-17.453-0.11509-32.479-5.6156-46.866-12.286-10.022-4.6471-16.276-3.3048-20.123 7.0318-9.584 25.755-32.735 41.802-46.357 64.844-6.3161 10.684-19.079 15.387-29.446 5.315-9.4504-9.1818-9.5534-20.464 0.39495-31.795 16.638-18.951 37.944-34.194 47.016-59.424 3.1566-8.7781 8.4372-16.973 6.8156-26.596-2.7702-16.437-7.04-30.154-28.241-33.549-13.538-2.1682-28.033-9.5014-32.718-26.13-7.2014-25.556-3.3736-33.741 20.532-46.129a121.65 121.65 0 0 1 35.373-12.369c17.141-2.9446 35.023-6.275 47.325 11.181 9.3346 13.245 6.565 39.52-5.2272 55.758-18.038 24.838-14.992 39.256 10.468 55.563 10.339 6.6222 22.004 8.3971 33.123 12.212 3.026 1.0383 6.3512 2.3199 9.3908 2.0145 15.09-1.5164 24.619 7.0863 23.773 20.006-0.90054 13.741-13.644 16.577-25.234 14.352zm-92.669-107.57c12.872 0.59537 17.3-10.85 22.717-20.428 3.0509-5.3943 9.8092-10.879 4.3574-18.061-7.4928-9.8718-15.751-1.1928-23.679-0.14632-3.3096 0.43685-7.0744 0.04989-9.8382 1.5249-9.8207 5.2412-27.903 3.0154-27.013 18.271 0.91407 15.669 18.379 14.305 30 17.985 0.64105 0.20307 1.3072 0.32687 3.4565 0.85454z" fill="#330b0a"/> <path transform="translate(-743.14 -1013.4)" d="m2087.7 2574.7c-2.3994 0.334-3.7007-0.75077-4.011-3.1121q2.0113 1.5524 4.011 3.1121z" fill="#e7cabe"/> <path transform="translate(-743.14 -1013.4)" d="m1972.8 2152.2q0.411-0.81391 0.822-1.6276-0.48174 0.743-0.96384 1.4861z" fill="#e7cabe"/> <path transform="translate(-743.14 -1013.4)" d="m1919.8 2535.4q-0.82647-0.38261-1.6529-0.765 0.75628 0.45352 1.5124 0.90754z" fill="#e7cabe"/> <path transform="translate(-743.14 -1013.4)" d="m1504.2 1906.2c-26.365-0.16523-48.548-10.165-65.854-29.918-15.021-17.145-10.973-36.477 9.5885-45.028q65.244-27.134 131.05-52.911c13.259-5.2092 21.675 1.329 26.439 14.124 12.739 34.21-2.3756 76.215-34.349 94.694-21.116 12.204-47.545 19.646-66.875 19.04z" fill="#330b0a"/> <path transform="translate(-743.14 -1013.4)" d="m2005.3 1658.5c3.699 54.094-59.244 87.003-109.15 71.964-19.335-5.8268-33.47-17.222-44.439-33.006-10.765-15.49-6.0711-30.94 11.774-37.036q56.554-19.319 113.77-36.686c19.014-5.7907 28.045 5.9789 28.045 34.765z" fill="#330b0a"/> <path transform="translate(-743.14 -1013.4)" d="m1438.7 1984.8c-28.765-2.5611-60.933 6.7523-93.722 8.0722-5.3164 0.21376-10.967 0.28679-15.943-1.2528-6.3632-1.9685-13.197-5.0245-12.674-13.607 0.42816-7.0304 6.0506-11.072 11.626-12.694 41.094-11.955 83.176-14.533 125.69-11.754 8.0259 0.5247 15.994 1.9645 24.021 2.4315 9.3164 0.54211 18.832 1.3042 17.824 13.771-0.9285 11.476-9.0368 15.398-19.936 15.098-10.831-0.29769-21.677-0.06507-36.886-0.06507z" fill="#330b0a"/> <path transform="translate(-743.14 -1013.4)" d="m2156.2 1630c3.9294 19.785-7.9197 32.402-19.573 45.891-22.452 25.99-49.42 47.869-68.853 76.626-5.8644 8.6782-15.475 12.099-24.65 5.7041-11.101-7.7375-6.2484-16.331 0.5353-25.081 24.217-31.237 48.891-62.052 75.494-91.331 10.526-11.586 23.484-12.268 37.337-11.515z" fill="#330b0a"/> <path transform="translate(-743.14 -1013.4)" d="m1919.5 2547.6c3.9747 2.2115 4.7939 4.7052 0.68586 7.6374q-0.34044-3.8212-0.68586-7.6374z" fill="#f9fbf8"/> <g fill="#f8a77b"> <path transform="translate(-743.14 -1013.4)" d="m1322.1 2066c4.7401 0.24 14.61 6.6899 15.37-5.3501 0.83008-13.04 9.92-17.39 19.67-22.83 14.19-7.91 29.92-11.03 45.05-14.93 24-6.1801 48.84-9.42 73.47-12.77 9.5701-1.2999 21.12 1.53 22.48 12.37 1.35 10.81-7.6 15.25-18.65 16.33-11.99 1.1899-23.83 4.3799-35.59 7.2899-29.45 7.2899-58.82 14.92-92.44 23.48 21.37 12.25 41.95 18.15 48.63 40.02 0.34985 1.1502 3.49 1.5601 5.3899 2.1301 17.11 5.0701 26.24 18.37 33.56 33.16 5.86 11.82 10.88 24.04 16.27 36.09q5.625 1.6798 11.25 3.3699c4.1099-4.4897 7.6399-9.7698 12.45-13.31 32.31-23.75 50.35-58.81 65.23-93.33 27.6-64 64.85-123.38 88.98-188.67 8.4399-22.85 25.24-41.85 29.08-66.05 5.24-33.05 16.35-64.13 29.15-94.65 10.94-26.08 43.94-45.73 71.21-40.12 30.37 6.24 60.48 14.4 83.83 37.91 19.78 19.94 44.69 36.27 70.12 43.7 55.54 16.22 104.43 47.35 159.16 64.51 27 8.4601 52.52 25.23 83 13 3.49-1.4 8.97 2.15 13.53 3.41 8.75-3.98 9.98 8.4 17.14 7.88 20.12-31.78 24.63-67.31 23.59-103.73-0.63989-22.46-5.03-24.02-24.8-16.05-33.28 13.42-64.65 30.3-94.73 49.65-6.74 4.34-11.95 4.63-17.92-0.66992-6.9502-6.1901-4.2202-12.21 0.29-17.71a90.199 90.199 0 0 1 19.45-17.33 459.06 459.06 0 0 1 90.83-48.12c10.3-4.0299 11.56-8.6399 6.6602-17.77-10.65-19.83-19.36-40.86-36.35-56.59-11.05-31.57-40.44-47.68-62.69-68.26-32.69-30.22-71.56-54-108.05-80.16-31.83-22.83-64.55-44.33-99.34-61.19-85.9-41.63-174.99-73.65-271.65-81.31-70.73-5.6-139.72-1.24-207.45 20.84-52.59 17.14-102.98 37.37-147.73 71.7-19.44 14.91-38.37 27.05-44.6 52.22-2.3099 9.32-8.8799 7.19-16.16 4.5399-22.57-8.22-45.65-15.07-68.2-23.34-98.98-36.31-200.46-59.24-306.51-57.41-13.4 0.23-27.22 1.27-39.74 7.0901-8.6801 4.04-11.14 12.93-8.51 20.64 2.5 7.3301 11.69 4.03 16.1 2.1502 11.6-4.9401 22.12-2.5901 33.56-0.13013 44.62 9.5801 85.82 28.32 127.62 45.7 71.55 29.76 131.85 77.25 193.14 122.87 22.47 16.73 19.19 28.26-6.8301 40.19-12.43 5.6901-26.1 9.3101-35.78 24.32 8.41 0 14.22 0.05005 20.04-0.02 5.05-0.05005 9.53 1.13 12.01 5.96 3.0701 5.97-1.03 10.87-3.8799 14.89-7.6801 10.83-37.51 13.94-49.58 5.05-14.04-10.34-12.37-23.8-6.5-38.22 6.3101-15.53 21.98-22.17 31.39-33.17-9.67-9.42-19.69-5.4299-29.21-2.05-9.4399 3.3401-18.38 7.92-28.78 7.77-6.77-0.11-11.79-2.24-14.03-9.12-2.25-6.9 0.28-11.91 6.11-15.51 7.25-4.5 14.61-8.82 23.58-14.2-13.73-9.12-26.87-11.75-41.34-8.86-17.75 3.54-35.53 6.9199-53.27 10.5-10.2 2.0599-21.01 3.22-24.58-9.0601-3.55-12.24 7.67-16.67 16.03-19.72a139.9 139.9 0 0 1 51.69-8.63c-33.48-25.61-69.86-38.76-104.53-54.64-34.35-15.74-68.89-32.4-107.09-37.66-11.62-1.6001-22.32-4.79-16.63 16.14 7.71 28.37 16.26 56.41 26.02 84.02 33.69 95.31 77.73 184.82 151.52 256.35 19.66 19.06 39.91 38.05 65.31 49.76 5.5-14.46 10.64-28.13 15.9-41.75 3.3199-8.59 12.14-9.13 18.3-8.32 5.35 0.7 4.88 9.0599 4.17 14.29-8.8801 65.78-12.98 131.41 0.92993 197.17a436.9 436.9 0 0 0 80.2 175.33c7.4401 9.8498 13.06 15.16 19.06-2.6301a281.55 281.55 0 0 1 48.72-87.68c26.92-32.96 61.95-53.05 106.9-50.77zm721.54-332.8c24.22-31.24 48.89-62.05 75.49-91.33 10.47-11.52 23.34-12.26 37.1-11.53 3.77 19.62-8.03 32.18-19.63 45.61-22.45 25.99-49.42 47.87-68.85 76.63-5.8599 8.6699-15.47 12.09-24.65 5.7-11.1-7.74-6.25-16.33 0.54001-25.08zm-180.19-72.71q56.55-19.32 113.77-36.69c19.01-5.79 28.04 5.98 28.04 34.77 3.7 54.09-59.24 87-109.15 71.96-19.33-5.8301-33.47-17.22-44.44-33.01-10.76-15.49-6.0699-30.94 11.78-37.03zm-415.55 170.76q65.235-27.135 131.05-52.91c13.25-5.2101 21.67 1.3298 26.43 14.12 12.74 34.21-2.37 76.22-34.34 94.7-21.12 12.2-47.55 19.64-66.88 19.04-26.36-0.16992-48.55-10.17-65.85-29.92-15.02-17.15-10.98-36.48 9.59-45.03zm-131.49 146.74c0.42017-7.03 6.05-11.07 11.62-12.7 41.1-11.95 83.18-14.53 125.69-11.75 8.03 0.52 16 1.96 24.02 2.4299 9.3201 0.54 18.84 1.3101 17.83 13.77-0.93006 11.48-9.04 15.4-19.94 15.1-10.83-0.30005-21.68-0.06006-36.88-0.06006-28.77-2.5701-60.94 6.75-93.73 8.07-5.3101 0.21008-10.96 0.28-15.94-1.25-6.36-1.97-13.2-5.0299-12.67-13.61z"/> <path transform="translate(-743.14 -1013.4)" d="M1919.50281,2547.63745q.0108.11938.0216.23877c.03345.00464.06336.01318.09693.01782Z"/> <path transform="translate(-743.14 -1013.4)" d="m3112.6 2429.8c-8.6819-4.1794-18.123-7.6257-10.986-20.253-20.036-3.9936-37.254 6.0901-54.591 12.58-38.111 14.265-74.647 33.569-104.55 60.67-34.426 31.204-71.075 57.364-113.87 74.763-15.487 6.2956-31.96 10.131-47.835 15.528-3.4482 1.1724-10.773-0.21484-8.4143 7.3381 4.4502 14.254-7.5586 13.17-14.73 15.618-8.2295 2.8096-16.998 4.0422-25.532 5.96-1.2117 7.0762 0.52319 16.316-9.2122 18.232-7.1663 1.4099-12.813-2.4661-16.05-9.5796-4.6641-10.25-14.612-7.1035-21.534-5.8342-45.462 8.3374-92.286 8.2593-136.83 22.592-8.6831 2.7942-18.893 0.45361-28.265 1.5898-13.324 1.6148-30.414-5.5268-36.684 14.453-0.248 0.79077-2.4717 1.5752-3.6079 1.3821-15.74-2.677-33.24 1.6336-46.374-11.5q-4.1664 0.1051-8.3345 0.2085c-12.65 11.515-27.431 5.3147-40.541 2.9978-22.415-3.9614-43.843 0.20068-65.788 2.0452-11.471 0.96411-26.284 2.4661-31.022-14.261 0.00854-0.00683-0.49731-0.37549-0.49731-0.37549-8.9609-2.3865-19.89 0.22364-25.717-10.119q-7.8516-0.54345-15.698-1.1008c-10.256 15.147-24.647 4.5442-33.592 1.5086-30.523-10.359-63.454-10.041-93.095-22.842-8.7532-3.7805-20.82-2.4819-24.403-14.859q-3.576-0.90051-7.1502-1.8062c-2.3994 0.334-3.7007-0.75073-4.0112-3.1121 0.00586-0.00342-0.209-0.4795-0.209-0.4795-37.85-5.0725-74.81-12.306-110.48-27.67-12.017-5.176-27.866 7.3215-39.783 15.173-8.2496 5.4356-10.944 7.2354-12.979-3.3889q-0.33326-3.698-0.66663-7.396c-11.458-1.5691-15.67-11.343-21.706-19.122-14.937-19.25-23.817-42.161-37.317-62.179-29.09-43.133-71.522-71.379-114-99.374-4.3699-2.8799-10.267-4.1379-10.854-10.789q-30.909-9.6562-61.817-19.312c-11.568 6.5559-20.495 6.8809-22.356-9.4714q-6.5014-0.09118-13.003-0.18287c-53.86 23.363-112.18 24.211-168.64 34.167 5.6781 18.867 11.911 38.397 17.289 58.159 1.6456 6.0469 3.967 14.045-3.804 17.849-9.2549 4.53-13.494-3.4458-17.446-9.4756-28.973-44.211-47.897-92.099-52.29-145.19-31.738 16.359-64.927 16.432-98.944 9.3228-5.7454-1.2009-11.978-0.07251-17.985-0.02051-2.3934 7.7075-7.9796 7.8811-14.268 5.8328-2.4485-0.79785-5.3285-2.5447-3.7889-5.4726 1.882-3.5798 5.8148-1.8901 8.9828-1.8479a21.864 21.864 0 0 0-0.41077-3.4228q-3.9913-0.52845-7.9829-1.0571c-11.395-3.4441-20.129-17.04-34.718-8.7793-2.2087 1.2507-5.0845-0.79077-5.4985-4.167-2.2817-18.604-13.843-29.933-29.626-38.12-5.3849-2.7927-2.6128-12.556-10.813-13.264a2.6699 2.6699 0 0 0-0.18237 3.1426c4.088 1.752 3.5282 3.2715-0.23121 4.6328-18.212 38.551-22.49 79.941-18.518 121.19 5.4508 56.623 22.545 110.63 47.033 162.19 50.152 105.59 132.43 161.49 250.25 165.41 56.318 1.8748 111.33-8.8875 166.96-13.37 38.814-3.1279 76.623-15.993 116.01-16.777 11.932-0.23731 23.06-7.6658 33.295-7.7952 23.325-0.29443 46.122-3.1018 69.113-5.7822 20.695-2.4131 42.092-7.4641 62.183-4.529 37.592 5.4917 74.959 14.191 111.52 24.68 64.249 18.432 128.62 37.376 194.62 46.728 75.12 10.645 149.87 24.35 225.78 30.038 65.954 4.9419 131.46 4.4182 196.72-5.6904 24.348-3.7715 50.032-4.0854 72.271 0.37793 30.118 6.0439 60.604 14.636 90.435 23.978 79.935 25.031 161.16 25.583 242.99 11.016 49.484-8.8093 98.501-22.308 149.6-15.064 3.9609-6.1719 5.8953-12.928 0.26855-18.643-16.133-16.386-13.706-41.562-28.267-58.613-0.62671-0.73388 0.082-2.6079 0.1687-3.9509q-0.30836-7.7219-0.61743-15.444c-7.1047-9.5342-1.2856-17.026 3.8904-24.62 7.7854-15.76 14.153-31.819 12.292-50.014a18.205 18.205 0 0 1 1.6545-9.8098c10.216-19.413 13.108-43.669 36.768-54.357 4.2844-1.9353 6.6821-8.0466 9.9487-12.232a202.38 202.38 0 0 0-40.6-24.72c-30.585-14.4-60.859-29.46-91.322-44.123z"/> <path transform="translate(-743.14 -1013.4)" d="m3323.2 2190.8a702.91 702.91 0 0 0-77.89-169.6c-19.59-30.95-41.97-60.35-65.08-89.2-20.77-25.92-42.66-51.27-67.78-71.37-34.27-27.42-69.7-53.98-104.91-80.39-61.11-45.83-129.56-75.41-199.48-102.47-65.06-25.18-133.15-38.73-202.91-42.76-10.11-0.59009-21.09-2.36-30.02 4.97 31.48 30.65 54.91 66.05 74.68 104.41 14.74 28.6 20.5 60.22 32.84 89.54 10.6 3.1701 22.14 4.5801 28.59 15.44 25.9 10.95 52.53 20.47 77.52 33.21 40.35 20.57 74.62 49.98 108.28 79.95 10.41 9.27 22.38 14.65 36.59 14.17 1.4299-8 33.84 17.02 26.52 21.07 13.72 11.88 24.46 24.96 15.93 44.23q2.1149 1.92 4.23 3.86c2.54 2.2599 5.0801 4.5299 7.6099 6.7799q6.0601 3 12.13 6.0103c7.1101 2.6099 11.52 7.5798 13.11 15 1.45 1.5698 2.8899 3.1499 4.3398 4.73 5.71 4.0498 10.96 8.45 11.73 16.1 15.04 17.59 24.38 38.86 37.38 57.78a56.223 56.223 0 0 1 11.86 22.86c0.01 0 0.62012 1.1902 0.62012 1.1902 6.8498 7 13.12 14.36 15.34 24.28 4.3498 12.81 10.29 25.34 12.69 38.51 4.5698 25.09 18.22 55.26 3.9399 75.06-23.25 32.26-14.32 52.46 10.58 73.39 9.7998 8.23 3.0798 10.75-2.8801 14.58 7.9099 6.5098 17.9 1.4199 26.49 4.7397 5.6699 2.2002 14 8.6702 16.81-0.5498 2.55-8.3801-3.54-12.53-13.92-14.37-19.06-3.3799-21.03-12.63-8.01-26.79 7.8-8.49 18.16-22.68 13.52-28.72-11.04-14.39-4.4897-25.22-0.7-37.85a39.775 39.775 0 0 1 20.69 39.59c-2.71 21.68-1.76 39.91 13.79 56.03a14.737 14.737 0 0 1 3.6499 7.1599c4.78 25.78 24.27 36.66 45.74 45.6 4.71-9.6399 23.28-8.6899 19.35-25.28-0.22-0.93994 3.8801-3.73 6.3101-4.3498 18.17-4.6301 36.44-8.9302 54.66-13.35 1.9399-0.47 4.3599-0.54 5.6699-1.76 14.3-13.31 33.15-19.24 48.8-30.33-4.0901-12.48-8.1602-24.96-12.3-37.42-15.59-46.97-21.5-96.29-36.11-143.68z"/> <path transform="translate(-743.14 -1013.4)" d="m3826.2 2683.3c-1.78-37.589-11.346-73.423-26.582-108.39-11.223-25.76-29.065-46.441-42.966-69.937-21.665-36.619-53.587-62.285-89.326-81.536-61.453-33.103-125.62-61.046-190.82-86.197-30.692-11.838-59.488-28.48-95.071-38.808 10.439 25.142 18.898 47.208 28.658 68.684 23.336 51.349 44.079 102.92 23.036 160.51-3.4014 9.3086 2.6575 12.23 9.1499 14.684 32.402 12.247 61.286 29.111 82.086 58.029 9.917 13.787 14.278 30.281 23.965 45.269 4.562-7.4883 7.5005-13.661 11.677-18.835 5.6223-6.9658 12.607-14.236 22.363-8.1848 10.1 6.2649 3.2952 15.851-0.021 21.663-23.397 41.002-32.63 87.21-49.49 130.56-20.302 52.202 12.446 111.48 55.168 132.26 44.846 21.804 90.612 21.699 137.72 9.0562 11.339-3.043 20.107-10.252 30.725-14.138 32.713-11.972 60.276-31.531 66.933-67.056 6.2659-33.437 7.0579-68.067 8.0942-102.24 0.45404-14.968-4.5623-29.896-5.296-45.385z"/> <path transform="translate(-743.14 -1013.4)" d="m2235.5 1702.1c11.298 33.727 19.839 67.752 10.152 103.34-7.2373 26.587-15.62 52.856-28.66 77.344 7.8655 5.2825 14.288 2.2373 20.602-3.2185 7.3269-6.3309 15.36-9.9092 24.858-4.2812 12.882 2.8932 19.687-13.187 32.53-10.413q16.296-13.215 32.595-26.431c-2.6018-1.9099-4.978-4.3127-7.8513-5.6448-11.337-5.2568-23.678-10.942-16.912-26.254 6.9746-15.786 20.416-8.9863 31.084-4.6519 37.363 15.18 67.514 38.617 83.642 77.05 13.519 4.8672 27.175 0.73841 40.769 0.62 35.272 7.4228 64.099-13.58 95.813-21.825 1.7036-0.44287 4.5274-2.5209 4.3611-3.3325-3.2683-15.969 21.882-11.996 19.321-27.68-0.40357-2.4724 3.8157-3.6148 6.4456-2.1882 20.068 10.884 29.209-2.7144 38.228-16.819 2.2896-3.5806 5.3906-5.9839 9.9817-5.584-15.264-50.105-43.53-92.187-79.851-129.29-50.729-51.824-112.62-84.894-184.18-89.437-55.415-3.5178-109.74 12.328-158.69 41.86-8.2551 4.9811-3.9211 8.1696-1.5066 12.567 11.26 20.509 19.84 42.115 27.263 64.275z"/> <path transform="translate(-743.14 -1013.4)" d="M1585.4,1295.97c-.14.17993-.27.38-.4.57007.21-.07007.42993-.14014.64-.21008v-.00989c-.04-.11011-.06994-.22009-.11-.33008h-.01C1585.48,1295.98,1585.43994,1295.98,1585.4,1295.97Z"/> <path transform="translate(-743.14 -1013.4)" d="m1780 1334.4c11.18 3.0701 12.57-0.40991 13.1-9.5199 1.48-24.99 8.91-48.84 15.55-72.7a1095 1095 0 0 1 70.21-185.02c3.2899-6.77 7.72-13.58 0.19007-20.1-5.5901-4.8401-12.61-6.1001-18.94-2.2201-28.56 17.52-59.2 32.68-84.56 54.07-22.63 19.09-45.55 38.4-67.7 58.24-41.82 37.49-77.54 80.04-114.03 122.11-0.6 0.68994-1.2899 1.3799-2.01 2.08-0.12 0.12-0.24 0.24-0.37 0.36-0.36 0.3501-0.73 0.7-1.11 1.0701-0.12 0.11987-0.25 0.24-0.37 0.36987-0.13 0.12012-0.25 0.24011-0.37 0.37012-0.25 0.25-0.49 0.5-0.73 0.75s-0.47009 0.51-0.70007 0.78c-0.23 0.26-0.44995 0.52991-0.66992 0.80994-0.21 0.27-0.42 0.54992-0.61011 0.83a12.071 12.071 0 0 0-1.4299 2.73 8.56 8.56 0 0 0-0.37 1.3401 2.3196 2.3196 0 0 0-0.04993 0.28 8.7278 8.7278 0 0 0-0.13013 1.47 10.004 10.004 0 0 0 0.32007 2.58q0.12012 0.435 0.27 0.9c32.37 5.03 64.92 9.09 97.04 15.37 32.75 6.3999 65.28 14.23 97.47 23.05z"/> <path transform="translate(-743.14 -1013.4)" d="m1864.5 1264.5c2.48 10.72-6.27 15.08-12.74 20.72-8.25 7.1899-17.2 13.97-20 26.98 11.01-3.52 21.46-6.6 26.46 6.26 3.8601 9.9399-1.6199 16.66-9.74 21.97-4.5599 2.99-13.86 2.15-12.91 9.39 1.07 8.2101 9.57 10.11 17.01 12.02 10.91 2.7999 20.29 3.6 28.08-7.4301 6.5499-9.27 15.86-8.95 24.57-1.97 9.1101 7.3 8.05 14.89-0.34 21.85-6.15 5.0998-7.32 11.18 0.31994 13.95 31.02 11.26 56.26 33.64 90.32 46.33-14.21-117.07-45.69-226.69-94.37-337.47-23.7 52.77-39.49 102.99-57.18 153.17 9.07 0.48001 18.01 3.32 20.52 14.23z"/> <path transform="translate(-743.14 -1013.4)" d="m1584.3 1297.4a4.1596 4.1596 0 0 0 0.68994-0.81c-0.57007 0.18994-1.14 0.37988-1.72 0.56995 0.35 0.09005 0.86 0.38005 1.0301 0.24005z"/> <polygon points="2445.9 1777.2 2447.1 1777 2446 1776.3"/> <path transform="translate(-743.14 -1013.4)" d="m1027 2053.9q0.939-0.71814 1.8776-1.4368c-0.4447 0.05517-1.0859-0.05078-1.2915 0.20044a3.9538 3.9538 0 0 0-0.58606 1.2363z"/> <path transform="translate(-743.14 -1013.4)" d="M1026.84155,2054.41968c.06885-.16748.12989-.34155.19019-.51612q-.19482.14905-.38941.2981Z"/> <path transform="translate(-743.14 -1013.4)" d="m1792 1761.3c-3.3097 0.43676-7.0743 0.0498-9.8383 1.5249-9.8206 5.2412-27.903 3.0154-27.013 18.271 0.91406 15.669 18.379 14.305 30 17.985 0.641 0.20313 1.3071 0.32691 3.4563 0.8545 12.872 0.59545 17.3-10.85 22.717-20.428 3.0509-5.3943 9.8092-10.879 4.3574-18.061-7.4928-9.8719-15.75-1.193-23.679-0.14628z"/> </g> <path transform="translate(-743.14 -1013.4)" d="m3874.9 2653.7c-13.55-20.13-40.71-97.65-45.24-103-14.35-16.95-23.88-36.3-34.01-55.61-3.8999-7.4399-53.29-56.76-51.7-63.4 0.31006-1.3198-28.5-22.24-28.5-22.24-3.3301-0.52-6.6199-2.24-9.79-5.8101l-37.88-22.51c-7.72-0.83984-15.41-3.71-23.52-8.52-19.29-11.44-41.65-17.1-60.27-30.35 2.3799-2.5701-54.06-16.16-77.9-30.3-32.01-19-68.42-30.58-102.87-45.44-18.67-5.72-31.84-12.63-33.97-37.41-1.3901-16.28-23.85-82.21-26.2-87.43-8.4302-18.68-19.61-37.13-22.7-56.78-1.55-9.9299-2.79-15.64-10.19-21.59-3.8498-3.1001-5.9399-8.7402-8.0998-13.56-15.35-34.4-36.03-65.95-58.35-95.69-39.35-52.43-84.55-99.5-134.33-142.96-62.91-54.91-129.76-102.86-206.2-135.88-107.42-46.4-217.88-81.4-337.36-73.45-22.68 1.51-44.06-3.1001-63.27-14.62-23.04-13.82-47.94-22.14-73.54-29.08-46.82-12.68-93.59-12.46-140.9-1.62-35.09 8.04-67.71 21.67-99.46 37.99-5.3799 2.76-10.15 6.68-15.54-0.84-29.57-41.22-69.26-71.78-108.03-103.55-11.19-9.1602-29.16-13.43-31-31.84-5.1901-52.07-16.55-102.95-28.58-153.77-20.33-85.89-46.83-169.75-82.36-250.58-10.11-23.01-25.66-42.63-54.14-40.25-16.87 1.41-33.27 7.12-48.48 16.46-34.49 21.18-68.27 42.82-100.23 68.09-36.44 28.82-68.2 61.69-99.74 95.25-28.58 30.39-53.45 63.63-77.78 97.37-3.4601 4.7999-7.6801 8.48-14.87 8.8099-54.09 2.47-106.27 14.83-156.95 33.16-34.13 12.34-66.71 27.91-98.65 45.69-29.1 16.21-51.8 39.64-78.46 58.34-6.77 4.76-11.06 5.6699-19.64 3.09-73.94-22.18-146.48-48.98-223.75-59.76-52.93-7.39-105.34-9.64-157.95-2.02-31.1 4.51-50.6 27.49-49.34 56.38 0.82 19.15 2.56 38.77 7.81 57.05 2.9 10.11 2.95 15.92-3.01 20.73q5.07 16.74 10.57 33.88c-0.25-1.73-0.5-3.46-0.74-5.1899-0.07-0.09-0.13-0.17993-0.2-0.27l-1.02-1.0599 1.16 0.91 0.06 0.41992q1.5299 2.07 3.06 4.16c-0.76 0.4-1.52 0.7799-2.28 1.18q1.815 5.64 3.68 11.31a16.641 16.641 0 0 1 1.12-3.1801c6.3 5.5901 6.73 12.06 5.77 23.08-0.22-0.39-0.44-0.77-0.66-1.15q1.32 3.915 2.67 7.85c0.38-0.38 0.89-0.77 1.23-1.1499 0.37 0.47 1.1 1.01 1.03 1.3999a18.126 18.126 0 0 1-1.11 3.1001c1 2.9199 2.02 5.8398 3.04 8.76 0.94-0.43006 1.87-0.86011 2.81-1.29 25.37 60.15 52.79 119.23 88.27 174.03 0.58 9.7899 6.94 15.55 13.78 21.62 6.23 5.54 10.99 12.73 16.4 19.19 36.85 36.42 75.08 71.25 116.58 102.39 5.35 4.02 10.08 9.04 9.77 16.86-0.74 18.86 1.86 37.85-2.09 56.6q2.2649 8.115 4.5199 16.22c7.79 60.91 28.71 117.65 56.19 172.02 10.95 21.66 23.31 44.47 42.09 59.05 24.28 18.83 21.71 41.5 19.64 65.89-0.45008 5.3401-1.75 10.6-2.6602 15.89 2.6502 56.8 15.94 111.81 27.86 167.09 1.78 8.25 11.37 9.5701 11.86 17.66 18.26 48.98 48.05 90.8 83.74 131.51-13.18 5.7 112.44 74.52 161.04 85.62 16.31 3.7202 32.47 0 48.49 2.51 9.6201 1.52 176.85-16.28 195.95-19.73 8.8099-1.5798 89.35-8.72 103.98-12.08 44.27-10.17 89.17-18.82 134.29-23.58 28.58-3.02 55.53 12.03 82.97 19.82 9.5599 2.7202 96.64 28.01 113.44 32.02 114.11 27.18 351.69 55.15 369.1 56.97a644.67 644.67 0 0 0 147.11-1.73c20.2-2.4902 41.3-8.7402 61.02-5.54 24.54 3.99 150.62 34.69 173.24 37.34a819.27 819.27 0 0 0 142.44 4.21c51.63-2.8899 102.09-12.98 153.28-17.98 10.34-1.0098 63.39 18.3 83.34 10.53 7.48-2.9099 14.57-2.01 17.75 4.03 3.1099 5.9102 31.11 18.93 42.29 28.1 10.94 8.97 25.5 8.9099 36.25 17.35 1.3999-2.23 4.2898-4.3599 5.52-1.9199 1.5198 3.02 46.36 12.81 56.81 7.3801 31.93-16.57 68.25-23.09 99.03-43.44 6.3201 46.5 18.86 83.83 51.18 112.89-5.8599 3.72 47.72 32.54 49.4 32.77 67.66 9.5303 132.53 2.2803 193.98-29.59 15.7-8.1401 27.95-20.63 42.79-32.05 0 0 32.31-57.23 34.97-76.39l0.01-0.06006 3.3498-27.02 8.6002-69.19c3.1301-33.01 4.1101-61.24-0.82006-68.57zm-1879.4-1219.1c-34.06-12.69-59.3-35.07-90.32-46.33-7.6399-2.77-6.47-8.8501-0.31994-13.95 8.39-6.9601 9.4501-14.55 0.34-21.85-8.71-6.98-18.02-7.3-24.57 1.97-7.7899 11.03-17.17 10.23-28.08 7.4301-7.4401-1.91-15.94-3.8099-17.01-12.02-0.95-7.24 8.35-6.4 12.91-9.39 8.1201-5.3099 13.6-12.03 9.74-21.97-5-12.86-15.45-9.78-26.46-6.26 2.8-13.01 11.75-19.79 20-26.98 6.47-5.64 15.22-10 12.74-20.72-2.51-10.91-11.45-13.75-20.52-14.23 17.69-50.18 33.48-100.4 57.18-153.17 48.68 110.78 80.16 220.4 94.37 337.47zm-410.24-139.49a10.004 10.004 0 0 1-0.32007-2.58 7.8737 7.8737 0 0 1 0.13013-1.47 2.3196 2.3196 0 0 1 0.04993-0.28 8.56 8.56 0 0 1 0.37-1.3401 12.071 12.071 0 0 1 1.4299-2.73c0.19007-0.28 0.40015-0.55994 0.61011-0.83 0.22-0.28 0.43994-0.54993 0.66992-0.80994 0.22-0.26 0.46-0.52 0.70007-0.78 0.24-0.25 0.48-0.5 0.73-0.75 0.12-0.13 0.24-0.25 0.37-0.37012 0.12-0.12988 0.25-0.25 0.37-0.36987 0.38-0.37012 0.75-0.72 1.11-1.0701 0.13-0.12 0.25-0.24 0.37-0.36 0.72009-0.70008 1.41-1.39 2.01-2.08 36.49-42.07 72.21-84.62 114.03-122.11 22.15-19.84 45.07-39.15 67.7-58.24 25.36-21.39 56-36.55 84.56-54.07 6.33-3.88 13.35-2.62 18.94 2.2201 7.5299 6.5199 3.0998 13.33-0.19007 20.1a1095 1095 0 0 0-70.21 185.02c-6.6399 23.86-14.07 47.71-15.55 72.7-0.53 9.11-1.92 12.59-13.1 9.5199-32.19-8.8199-64.72-16.65-97.47-23.05-32.12-6.28-64.67-10.34-97.04-15.37 0.04 0.11 0.07 0.22 0.11 0.33008v0.00989c-0.21008 0.06994-0.43005 0.14-0.64 0.21008a4.1596 4.1596 0 0 1-0.68994 0.80994c-0.17 0.14-0.68006-0.15-1.03-0.24 0.58-0.19007 1.1499-0.38 1.72-0.56995 0.13-0.19006 0.26-0.39014 0.4-0.57007 0.03992 0.01 0.08 0.01 0.12 0.02-0.10016-0.30989-0.19-0.59982-0.26008-0.89982zm1603.8 1495.5 0.17993-0.87988 1.01 0.66992zm314.9-57.27c-12.29-3.1099-11.44-24.72-29.57-22.51 7.9199 16.09 13.89 31.56 7.1099 48.8-3.97 4.46-7.4199 9.5701-12 13.28-19.35 15.7-27.3 14.48-42.12-5.6799-4-5.4399-4-5.4399-13.54-7.02-1.04 8.29 14.03 13.79 5.25 22.48-9.0901 9-21.46 10.55-33.97 8.73a369.13 369.13 0 0 1-107.16-32.65c-22.98-11.06-46.66-7.1001-69.53-12.43-51.11-7.2397-100.13 6.25-149.61 15.06-81.83 14.57-163.05 14.02-242.99-11.01-29.83-9.3401-60.31-17.94-90.43-23.98-22.24-4.46-47.92-4.1499-72.27-0.37988-65.26 10.11-130.77 10.63-196.72 5.6899-75.91-5.6899-150.66-19.39-225.78-30.04-65.99-9.3498-130.37-28.29-194.62-46.72-36.56-10.49-73.93-19.19-111.52-24.68-20.09-2.9402-41.49 2.1101-62.18 4.53-23 2.6799-45.79 5.48-69.12 5.7798-10.23 0.13013-21.36 7.5601-33.29 7.79-39.39 0.79-77.2 13.65-116.01 16.78-55.63 4.4804-110.64 15.24-166.96 13.37-117.82-3.9202-200.1-59.82-250.25-165.41-24.49-51.56-41.58-105.57-47.03-162.19-3.97-41.25 0.3-82.64 18.52-121.19 0.06994-1.55 0.15-3.0901 0.23-4.6399a2.6296 2.6296 0 0 1 0.18-3.1301c9.33-21.03 17.29-42.81 28.31-62.91 18.49-33.72 67.03-69.26 112.34-51.54 15.59 6.1001 32.44 12.11 22.11 35.35a12.324 12.324 0 0 0 3.33 14.7c6.8199 5.99 9.2201-1.05 13.26-3.6101 15.52-9.8398 19.19-5.9399 28.52 10.02 22.82 39.07 7.08 79.25 7.1801 118.96 4.3899 53.11 23.32 100.99 52.29 145.2 3.9501 6.0298 8.1901 14.01 17.45 9.48 7.77-3.8 5.45-11.8 3.7999-17.85-5.38-19.76-11.61-39.29-17.29-58.16 56.46-9.95 114.78-10.8 168.64-34.16 2-5.95 12-8.6599 4.88-18.52-6.13-8.49-13.04-5.49-19.67-4.8401-44.73 4.3601-88.93 18.26-134.5 7.1902a9.7707 9.7707 0 0 0-2.0299-0.15991c-34.27-0.91016-38.88-5.6602-36.16-40.92 2.29-29.72 7.9199-59.24 4.3201-89.23-5.3901-12.05-10.41-24.27-16.27-36.09-7.3201-14.79-16.45-28.09-33.56-33.16-1.8999-0.57007-5.04-0.98-5.3899-2.1301-6.6802-21.87-27.26-27.77-48.63-40.02 33.62-8.5601 62.99-16.19 92.44-23.48 11.76-2.91 23.6-6.1 35.59-7.2899 11.05-1.0801 20-5.52 18.65-16.33-1.36-10.84-12.91-13.67-22.48-12.37-24.63 3.35-49.47 6.59-73.47 12.77-15.13 3.9-30.86 7.02-45.05 14.93-9.75 5.4399-18.84 9.7899-19.67 22.83-0.76 12.04-10.63 5.5901-15.37 5.3501-44.95-2.28-79.98 17.81-106.9 50.77a281.55 281.55 0 0 0-48.72 87.68c-6 17.79-11.62 12.48-19.06 2.6301a436.9 436.9 0 0 1-80.2-175.33c-13.91-65.76-9.8101-131.39-0.92993-197.17 0.71-5.2301 1.1799-13.59-4.17-14.29-6.16-0.81006-14.98-0.27-18.3 8.32-5.26 13.62-10.4 27.29-15.9 41.75-25.4-11.71-45.65-30.7-65.31-49.76-73.79-71.53-117.83-161.04-151.52-256.35-9.76-27.61-18.31-55.65-26.02-84.02-5.69-20.93 5.01-17.74 16.63-16.14 38.2 5.2598 72.74 21.92 107.09 37.66 34.67 15.88 71.05 29.03 104.53 54.64a139.9 139.9 0 0 0-51.69 8.63c-8.36 3.05-19.58 7.48-16.03 19.72 3.57 12.28 14.38 11.12 24.58 9.0601 17.74-3.5801 35.52-6.96 53.27-10.5 14.47-2.89 27.61-0.26 41.34 8.86-8.97 5.38-16.33 9.7-23.58 14.2-5.83 3.6-8.36 8.61-6.11 15.51 2.2401 6.88 7.26 9.01 14.03 9.12 10.4 0.15 19.34-4.4299 28.78-7.77 9.52-3.3799 19.54-7.37 29.21 2.05-9.41 11-25.08 17.64-31.39 33.17-5.87 14.42-7.54 27.88 6.5 38.22 12.07 8.89 41.9 5.7799 49.58-5.05 2.8498-4.0199 6.95-8.92 3.8799-14.89-2.48-4.83-6.96-6.01-12.01-5.96-5.8199 0.07007-11.63 0.02-20.04 0.02 9.6801-15.01 23.35-18.63 35.78-24.32 26.02-11.93 29.3-23.46 6.8301-40.19-61.29-45.62-121.59-93.11-193.14-122.87-41.8-17.38-83-36.12-127.62-45.7-11.44-2.46-21.96-4.8099-33.56 0.13013-4.41 1.8799-13.6 5.1799-16.1-2.1502-2.63-7.71-0.17-16.6 8.51-20.64 12.52-5.8201 26.34-6.8601 39.74-7.0901 106.05-1.83 207.53 21.1 306.51 57.41 22.55 8.27 45.63 15.12 68.2 23.34 7.28 2.65 13.85 4.78 16.16-4.5399 6.23-25.17 25.16-37.31 44.6-52.22 44.75-34.33 95.14-54.56 147.73-71.7 67.73-22.08 136.72-26.44 207.45-20.84 96.66 7.66 185.75 39.68 271.65 81.31 34.79 16.86 67.51 38.36 99.34 61.19 36.49 26.16 75.36 49.94 108.05 80.16 22.25 20.58 51.64 36.69 62.69 68.26 16.99 15.73 25.7 36.76 36.35 56.59 4.8999 9.13 3.6399 13.74-6.6602 17.77a459.06 459.06 0 0 0-90.83 48.12 90.199 90.199 0 0 0-19.45 17.33c-4.5103 5.5-7.2402 11.52-0.29 17.71 5.97 5.2999 11.18 5.0099 17.92 0.66992 30.08-19.35 61.45-36.23 94.73-49.65 19.77-7.97 24.16-6.41 24.8 16.05 1.04 36.42-3.47 71.95-23.59 103.73-10.99 33.73-29.33 64.02-44.97 96 34.2-14.15 54.11-42.23 72.53-71.81 13.04-24.49 21.42-50.76 28.66-77.34 9.6902-35.59 1.1401-69.61-10.15-103.34-7.4299-22.16-16.01-43.77-27.27-64.27-2.4099-4.4-6.75-7.59 1.51-12.57 48.94-29.53 103.27-45.38 158.69-41.86 71.56 4.54 133.44 37.61 184.17 89.44 36.32 37.1 64.59 79.18 79.86 129.29 13.73 45.63 30.51 91.25 3.27 137.76-2.76 4.7101-3.79 13.56-11.44 11.5-3.3501-0.8999-4.98-8.3899-7.27-12.94-1.71-3.39 0.03-8.47-4.8101-10.29-2.8899-1.09-5.8401-4.83-8.9199-1.5599-1.4202 1.51-1.02 4.7899-1.29 7.2799-0.06006 0.58008 0.57007 1.2101 0.8 1.8401 4.3198 11.6 13.06 23.73 0.56982 34.9-15.54 13.89-35.02 14.58-54.22 11.61-7.24-1.12-5.6699-9.89-5.48-15.71 0.21021-6.73 6.1902-16.84-4.7898-17.72-10.85-0.88-2.7402 10.71-5.9902 15.82-1.3899 2.1901-1.5898 5.1401-2.3298 7.7401 1.98 12.27-7.1301 9.17-12.96 8.59-36.55-3.6599-60.97-25.62-78.84-55.4-8.72-14.55-14.25-31.01-21.23-46.61-16.12-38.44-46.27-61.87-83.64-77.05-10.67-4.34-24.11-11.14-31.08 4.6502-6.77 15.31 5.5798 20.99 16.91 26.25 2.8701 1.3298 5.25 3.74 7.8601 5.6499 19.42 14.56 39.42 29.22 53.67 48.64 12.3 16.75 17.81 37.96 27.45 56.78 25.97 50.68 70.03 71.1 123.11 77.78 46.06 5.79 86.93-7.24 120.68-38.45a102.99 102.99 0 0 0 33.48-70.89c1.45-26.13 1.4102-52.43-3.3701-78.41-12.34-29.32-18.1-60.94-32.84-89.54-19.77-38.36-43.2-73.76-74.68-104.41 8.9299-7.33 19.91-5.5601 30.02-4.97 69.76 4.03 137.85 17.58 202.91 42.76 69.92 27.06 138.37 56.64 199.48 102.47 35.21 26.41 70.64 52.97 104.91 80.39 25.12 20.1 47.01 45.45 67.78 71.37 23.11 28.85 45.49 58.25 65.08 89.2a702.91 702.91 0 0 1 77.89 169.6c14.61 47.39 20.52 96.71 36.11 143.68 4.1399 12.46 8.21 24.94 12.31 37.42 12.74 15.74 17.5 35.06 24.09 53.57 7.8701 26.73 16.6 53.3 6.1802 81.54-5.3401 14.51-13.26 21.07-27.46 10.62-3.7803-2.7803-9.8601-0.73-11.85-6.3401-34.18-11.85-66.16-28.3-97.17-46.73-9.6201-5.72-19.06-11.72-28.59-17.59-21.47-8.9399-40.96-19.82-45.74-45.6a14.737 14.737 0 0 0-3.6499-7.1599c-15.55-16.12-16.5-34.35-13.79-56.03a39.775 39.775 0 0 0-20.69-39.59c-3.7898 12.63-10.34 23.46 0.7 37.85 4.6401 6.04-5.7197 20.23-13.52 28.72-13.02 14.16-11.05 23.41 8.01 26.79 10.38 1.8401 16.47 5.99 13.92 14.37-2.8101 9.22-11.14 2.75-16.81 0.5498-8.5898-3.3198-18.58 1.77-26.5-4.7598-7.6699-2.03-13.13 1.0498-17.14 7.47-7.1301 12.62 2.3098 16.06 10.99 20.24 30.46 14.67 60.73 29.73 91.32 44.13a201.67 201.67 0 0 1 40.6 24.72c35.81 13.62 67.63 35.46 103.52 49.26 35.68 13.71 73.06 23.16 106.93 41.46a142.27 142.27 0 0 1 30.5 22.56c9.4602 9 6.23 26.45 13.97 31.29 13.17 8.24 13.73 20.48 17.21 31.35 6.8401 21.33-0.4898 41.06-12.7 58.76zm327.58-4.6099c-1.04 34.17-1.8301 68.8-8.0998 102.23-6.6502 35.53-34.22 55.09-66.93 67.06-10.62 3.8899-19.39 11.1-30.73 14.14-47.11 12.64-92.87 12.75-137.72-9.0598-42.72-20.77-75.47-80.05-55.16-132.25 16.86-43.36 26.09-89.56 49.49-130.57 3.3098-5.8101 10.12-15.39 0.01977-21.66-9.7598-6.05-16.74 1.2197-22.37 8.1899-4.1699 5.1699-7.1101 11.34-11.67 18.83-9.6902-14.99-14.05-31.48-23.97-45.27-20.8-28.92-49.68-45.78-82.08-58.03-6.5-2.4497-12.56-5.3699-9.1499-14.68 21.04-57.59 0.2998-109.16-23.04-160.51-9.76-21.47-18.22-43.54-28.66-68.68 35.59 10.33 64.38 26.97 95.07 38.81 65.21 25.15 129.37 53.09 190.83 86.19 35.74 19.26 67.66 44.92 89.32 81.54 13.9 23.5 31.75 44.18 42.97 69.94 15.24 34.97 24.8 70.8 26.58 108.39 0.73 15.49 5.75 30.42 5.3001 45.39z" fill="#330b0a"/> <path transform="translate(-743.14 -1013.4)" d="M1585,1296.54a4.15959,4.15959,0,0,1-.68994.80994c-.17.14-.68006-.15-1.03-.24C1583.86,1296.91992,1584.42993,1296.73,1585,1296.54Z" fill="#330b0a"/> </svg>